<svg xmlns="http://www.w3.org/2000/svg" width="22" height="22" viewBox="0 0 5.8208 5.8208"><path fill="#5c707f" fill-opacity=".941" d="M2.9 0C1.3 0 0 1.3 0 2.9c0 1.6 1.3 2.92 2.9 2.92 1.62 0 2.92-1.3 2.92-2.9C5.82 1.3 4.52 0 2.92 0zm0 .4c1.4 0 2.5 1.13 2.5 2.5 0 1.4-1.1 2.5-2.5 2.5C1.54 5.4.4 4.3.4 2.9.4 1.54 1.54.4 2.9.4zM1.6 2.2c-.05 0-.1.02-.14.06-.04.04-.06.1-.06.14 0 .05.02.1.06.15l1.32 1.32c.04.04.1.06.15.06.05 0 .1 0 .14-.05L4.4 2.53c.07-.08.07-.2 0-.3-.1-.07-.22-.07-.3 0l-1.17 1.2-1.18-1.2c-.04-.03-.1-.05-.15-.05z"/></svg>