<svg xmlns="http://www.w3.org/2000/svg" width="19" height="22" viewBox="0 0 5.0271 5.8208"><path fill="#fff" d="M2.5 0c-.13 0-.4.02-.65.17-.26.14-.57.45-.6 1.1 0 .08-.1.98.38 1.5.2.24.5.36.86.37h.03c.36 0 .65-.13.86-.37.47-.52.4-1.42.38-1.5C3.75.6 3.44.3 3.18.16 3 .07 2.78 0 2.53 0H2.5zm0 .33h.02c.33 0 .9.14.93.95 0 .02.1.84-.3 1.27-.16.17-.36.26-.63.26-.28 0-.5-.08-.64-.25-.4-.43-.3-1.25-.3-1.26 0 0 0 0 0-.02.03-.86.66-.95.92-.95zm-.82 2.8c-.04 0-.07 0-.1.02 0 0-.46.32-1 .46-.02 0-.02 0-.02 0-.54.2-.55.75-.56 1 0 0 0 0 0 .02 0 .07 0 .4.06.55.02.03.04.06.07.07.03.03.9.58 2.4.58 1.46 0 2.34-.55 2.37-.58.03 0 .06-.04.07-.07.06-.16.06-.48.06-.55 0 0 0-.02 0-.03 0-.25-.03-.8-.56-1-.56-.13-1.02-.44-1.03-.44-.07-.06-.17-.04-.23.04-.04.07-.02.17.05.22.02.02.5.35 1.12.5.3.1.32.4.33.68 0 0 0 .02 0 .03 0 .1 0 .28-.03.37-.2.1-.97.5-2.16.5C1.35 5.5.56 5.1.37 5c-.02-.1-.03-.26-.03-.37 0 0 0-.02 0-.03 0-.28.04-.58.33-.68.6-.15 1.1-.5 1.1-.5.1-.05.1-.15.05-.23-.02-.05-.07-.08-.12-.08z"/></svg>